<svg width="20" height="19" viewBox="0 0 20 19" fill="none" xmlns="http://www.w3.org/2000/svg">
<path d="M14.5527 10.9091C14.3555 11.1003 14.2648 11.3767 14.3098 11.6479L14.9868 15.395C15.044 15.7126 14.9099 16.034 14.6441 16.2176C14.3836 16.408 14.0371 16.4308 13.753 16.2785L10.3798 14.5192C10.2626 14.4567 10.1323 14.4232 9.99904 14.4194H9.79264C9.72105 14.4301 9.65098 14.4529 9.58701 14.488L6.21307 16.2557C6.04627 16.3394 5.85739 16.3691 5.67232 16.3394C5.22145 16.2541 4.92061 15.8246 4.99449 15.3714L5.67232 11.6243C5.71726 11.3509 5.62662 11.0729 5.42937 10.8786L2.67919 8.21299C2.44918 7.98983 2.36921 7.65472 2.47431 7.35236C2.57637 7.05076 2.83684 6.83065 3.15139 6.78115L6.9366 6.23202C7.22449 6.20232 7.47734 6.02715 7.60682 5.7682L9.27474 2.34854C9.31435 2.27238 9.36538 2.20231 9.42707 2.1429L9.49561 2.08959C9.53141 2.04998 9.57254 2.01723 9.61823 1.99058L9.70125 1.96011L9.83072 1.9068H10.1514C10.4377 1.9365 10.6898 2.10787 10.8216 2.36377L12.5116 5.7682C12.6335 6.01725 12.8703 6.19013 13.1437 6.23202L16.9289 6.78115C17.2488 6.82685 17.5161 7.04771 17.622 7.35236C17.7218 7.65777 17.6357 7.99288 17.4011 8.21299L14.5527 10.9091Z" fill="#F6B76F"/>
</svg>
